<mxfile host="app.diagrams.net" modified="2024-05-11T21:01:36.529Z" agent="Mozilla/5.0 (Windows NT 10.0; Win64; x64) AppleWebKit/537.36 (KHTML, like Gecko) Chrome/124.0.0.0 Safari/537.36" etag="KRhXB63qAcijObvaoDrr" version="24.4.0" type="github">
  <diagram name="Página-1" id="GQpMK1P9TrsjqKcauXl_">
    <mxGraphModel dx="880" dy="468" grid="1" gridSize="10" guides="1" tooltips="1" connect="1" arrows="1" fold="1" page="1" pageScale="1" pageWidth="827" pageHeight="1169" math="0" shadow="0">
      <root>
        <mxCell id="0" />
        <mxCell id="1" parent="0" />
        <mxCell id="DJpuLHs6pRCpWXKPrTgz-1" value="inicio" style="rounded=1;whiteSpace=wrap;html=1;arcSize=50;fontFamily=Times New Roman;fontStyle=1" vertex="1" parent="1">
          <mxGeometry x="270" y="10" width="120" height="60" as="geometry" />
        </mxCell>
        <mxCell id="DJpuLHs6pRCpWXKPrTgz-2" value="" style="endArrow=classic;html=1;rounded=0;exitX=0.5;exitY=1;exitDx=0;exitDy=0;" edge="1" parent="1" source="DJpuLHs6pRCpWXKPrTgz-1">
          <mxGeometry width="50" height="50" relative="1" as="geometry">
            <mxPoint x="390" y="280" as="sourcePoint" />
            <mxPoint x="330" y="130" as="targetPoint" />
            <Array as="points">
              <mxPoint x="330" y="70" />
            </Array>
          </mxGeometry>
        </mxCell>
        <mxCell id="DJpuLHs6pRCpWXKPrTgz-3" value="inteiro entrada=0, contador=1, saida=0" style="rounded=0;whiteSpace=wrap;html=1;align=left;" vertex="1" parent="1">
          <mxGeometry x="230" y="130" width="240" height="40" as="geometry" />
        </mxCell>
        <mxCell id="DJpuLHs6pRCpWXKPrTgz-4" value="" style="endArrow=classic;html=1;rounded=0;exitX=0.5;exitY=1;exitDx=0;exitDy=0;" edge="1" parent="1">
          <mxGeometry width="50" height="50" relative="1" as="geometry">
            <mxPoint x="330" y="200" as="sourcePoint" />
            <mxPoint x="330" y="220" as="targetPoint" />
            <Array as="points">
              <mxPoint x="330" y="170" />
              <mxPoint x="330" y="200" />
              <mxPoint x="330" y="220" />
            </Array>
          </mxGeometry>
        </mxCell>
        <mxCell id="DJpuLHs6pRCpWXKPrTgz-5" value="escreva(&quot;digite o número para tabuada\n&quot;)&lt;div&gt;leia(entrada)&lt;/div&gt;" style="rounded=0;whiteSpace=wrap;html=1;align=left;" vertex="1" parent="1">
          <mxGeometry x="225" y="220" width="250" height="60" as="geometry" />
        </mxCell>
        <mxCell id="DJpuLHs6pRCpWXKPrTgz-7" value="" style="endArrow=classic;html=1;rounded=0;exitX=0.5;exitY=1;exitDx=0;exitDy=0;" edge="1" parent="1">
          <mxGeometry width="50" height="50" relative="1" as="geometry">
            <mxPoint x="329.5" y="280" as="sourcePoint" />
            <mxPoint x="330" y="320" as="targetPoint" />
            <Array as="points">
              <mxPoint x="329.5" y="280" />
            </Array>
          </mxGeometry>
        </mxCell>
        <mxCell id="DJpuLHs6pRCpWXKPrTgz-9" value="enquanto(contador&amp;lt;=10){" style="swimlane;whiteSpace=wrap;html=1;" vertex="1" parent="1">
          <mxGeometry x="215" y="320" width="270" height="110" as="geometry" />
        </mxCell>
        <mxCell id="DJpuLHs6pRCpWXKPrTgz-11" value="saida=entrada*contador&lt;div&gt;escreva(saida)&lt;/div&gt;&lt;div&gt;contador=contador++&lt;/div&gt;" style="text;html=1;align=center;verticalAlign=middle;resizable=0;points=[];autosize=1;strokeColor=none;fillColor=none;" vertex="1" parent="DJpuLHs6pRCpWXKPrTgz-9">
          <mxGeometry x="10" y="33" width="150" height="60" as="geometry" />
        </mxCell>
        <mxCell id="DJpuLHs6pRCpWXKPrTgz-12" value="&lt;b&gt;FIM&lt;/b&gt;" style="rounded=1;whiteSpace=wrap;html=1;" vertex="1" parent="1">
          <mxGeometry x="270" y="490" width="120" height="60" as="geometry" />
        </mxCell>
        <mxCell id="DJpuLHs6pRCpWXKPrTgz-14" value="" style="endArrow=classic;html=1;rounded=0;entryX=0.5;entryY=0;entryDx=0;entryDy=0;" edge="1" parent="1" target="DJpuLHs6pRCpWXKPrTgz-12">
          <mxGeometry width="50" height="50" relative="1" as="geometry">
            <mxPoint x="320" y="430" as="sourcePoint" />
            <mxPoint x="370" y="440" as="targetPoint" />
            <Array as="points">
              <mxPoint x="330" y="430" />
            </Array>
          </mxGeometry>
        </mxCell>
        <mxCell id="DJpuLHs6pRCpWXKPrTgz-15" value="&lt;b&gt;&lt;font style=&quot;font-size: 30px; background-color: rgb(51, 51, 255);&quot;&gt;TABUADA&lt;/font&gt;&lt;/b&gt;" style="text;html=1;align=center;verticalAlign=middle;resizable=0;points=[];autosize=1;strokeColor=none;fillColor=none;" vertex="1" parent="1">
          <mxGeometry x="510" width="170" height="50" as="geometry" />
        </mxCell>
      </root>
    </mxGraphModel>
  </diagram>
</mxfile>
